<svg version="1.1" xmlns="http://www.w3.org/2000/svg" xmlns:xlink="http://www.w3.org/1999/xlink" width="65.09099" height="53.31363" viewBox="0,0,65.09099,53.31363"><g transform="translate(-181.80337,-138.94072)"><g stroke-miterlimit="10"><path d="M190.87363,165.25119c0,-13.15016 10.66031,-23.81047 23.81047,-23.81047c13.15016,0 23.81047,10.66031 23.81047,23.81047c0,13.15016 -10.66031,23.81047 -23.81047,23.81047c-13.15016,0 -23.81047,-10.66031 -23.81047,-23.81047z" fill="none" stroke="#000000" stroke-width="5"/><path d="M203.85043,156.91752c0,-1.38071 1.11929,-2.5 2.5,-2.5c1.38071,0 2.5,1.11929 2.5,2.5c0,1.38071 -1.11929,2.5 -2.5,2.5c-1.38071,0 -2.5,-1.11929 -2.5,-2.5z" fill="#000000" stroke="none" stroke-width="0.5"/><path d="M222.89881,155.727c0,-1.38071 1.11929,-2.5 2.5,-2.5c1.38071,0 2.5,1.11929 2.5,2.5c0,1.38071 -1.11929,2.5 -2.5,2.5c-1.38071,0 -2.5,-1.11929 -2.5,-2.5z" fill="#000000" stroke="none" stroke-width="0.5"/><path d="M228.3571,169.0392c1.76777,1.76777 0,3.53553 0,3.53553c0,0 -5.60794,4.68094 -11.74049,5.2149c-3.94939,0.34387 -8.19828,-2.42489 -11.03423,-4.63366c0,0 -1.95217,-1.56174 -0.39043,-3.51391c1.56174,-1.95217 3.51391,-0.39043 3.51391,-0.39043c2.3729,1.9713 4.80938,4.63702 7.37221,4.4591c2.79787,-0.19423 5.74632,-3.37481 8.92702,-4.4818l-0.18352,-0.18974c0,0 1.76777,-1.76777 3.53553,0z" fill="#000000" stroke="none" stroke-width="0.5"/><path d="M195.98572,181.75581c3.67219,0 6.64908,2.35018 6.64908,5.24927c0,2.89909 -2.97689,5.24927 -6.64908,5.24927c-3.67219,0 -6.64908,-2.35018 -6.64908,-5.24927c0,-2.89909 2.97689,-5.24927 6.64908,-5.24927z" fill="#000000" stroke="none" stroke-width="0"/><path d="M237.07003,185.81525c0,2.47389 -1.91148,4.47938 -4.26941,4.47938c-2.35793,0 -4.26941,-2.00549 -4.26941,-4.47938c0,-2.47389 1.91148,-4.47938 4.26941,-4.47938c2.35793,0 4.26941,2.00549 4.26941,4.47938z" fill="#000000" stroke="none" stroke-width="0"/><path d="M246.89436,169.56885c0,3.28564 -1.97415,5.94918 -4.40939,5.94918c-2.43524,0 -4.40939,-2.66354 -4.40939,-5.94918c0,-3.28564 1.97415,-5.94918 4.40939,-5.94918c2.43524,0 4.40939,2.66354 4.40939,5.94918z" fill="#000000" stroke="none" stroke-width="NaN"/><path d="M186.49272,162.07988c2.58986,0 4.68935,2.72621 4.68935,6.08916c0,3.36295 -2.09949,6.08916 -4.68935,6.08916c-2.58986,0 -4.68935,-2.72621 -4.68935,-6.08916c0,-3.36295 2.09949,-6.08916 4.68935,-6.08916z" fill="#000000" stroke="none" stroke-width="0"/></g></g></svg>