<svg version="1.1" xmlns="http://www.w3.org/2000/svg" xmlns:xlink="http://www.w3.org/1999/xlink" width="77.61262" height="53.77997" viewBox="0,0,77.61262,53.77997"><g transform="translate(-188.37363,-138.47438)"><g stroke-miterlimit="10"><path d="M190.87363,165.25119c0,-13.15016 10.66031,-23.81047 23.81047,-23.81047c13.15016,0 23.81047,10.66031 23.81047,23.81047c0,13.15016 -10.66031,23.81047 -23.81047,23.81047c-13.15016,0 -23.81047,-10.66031 -23.81047,-23.81047z" fill="none" stroke="#000000" stroke-width="5"/><path d="M203.85043,156.91752c0,-1.38071 1.11929,-2.5 2.5,-2.5c1.38071,0 2.5,1.11929 2.5,2.5c0,1.38071 -1.11929,2.5 -2.5,2.5c-1.38071,0 -2.5,-1.11929 -2.5,-2.5z" fill="#000000" stroke="none" stroke-width="0.5"/><path d="M222.89881,155.727c0,-1.38071 1.11929,-2.5 2.5,-2.5c1.38071,0 2.5,1.11929 2.5,2.5c0,1.38071 -1.11929,2.5 -2.5,2.5c-1.38071,0 -2.5,-1.11929 -2.5,-2.5z" fill="#000000" stroke="none" stroke-width="0.5"/><path d="M228.3571,169.0392c1.76777,1.76777 0,3.53553 0,3.53553c0,0 -5.60794,4.68094 -11.74049,5.2149c-3.94939,0.34387 -8.19828,-2.42489 -11.03423,-4.63366c0,0 -1.95217,-1.56174 -0.39043,-3.51391c1.56174,-1.95217 3.51391,-0.39043 3.51391,-0.39043c2.3729,1.9713 4.80938,4.63702 7.37221,4.4591c2.79787,-0.19423 5.74632,-3.37481 8.92702,-4.4818l-0.18352,-0.18974c0,0 1.76777,-1.76777 3.53553,0z" fill="#000000" stroke="none" stroke-width="0.5"/><path d="M195.98572,181.75581c3.67219,0 6.64908,2.35018 6.64908,5.24927c0,2.89909 -2.97689,5.24927 -6.64908,5.24927c-3.67219,0 -6.64908,-2.35018 -6.64908,-5.24927c0,-2.89909 2.97689,-5.24927 6.64908,-5.24927z" fill="#000000" stroke="none" stroke-width="0"/><path d="M237.07003,185.81525c0,2.47389 -1.91148,4.47938 -4.26941,4.47938c-2.35793,0 -4.26941,-2.00549 -4.26941,-4.47938c0,-2.47389 1.91148,-4.47938 4.26941,-4.47938c2.35793,0 4.26941,2.00549 4.26941,4.47938z" fill="#000000" stroke="none" stroke-width="0"/><path d="M247.79436,161.11965c0,3.05371 -2.50686,5.52923 -5.59922,5.52923c-3.09237,0 -5.59922,-2.47552 -5.59922,-5.52923c0,-3.05371 2.50686,-5.52923 5.59922,-5.52923c3.09237,0 5.59922,2.47552 5.59922,5.52923z" fill="#000000" stroke="none" stroke-width="0"/><path d="M242.75506,151.67095c0,2.24197 -2.31884,4.05944 -5.17928,4.05944c-2.86044,0 -5.17928,-1.81747 -5.17928,-4.05944c0,-2.24197 2.31884,-4.05944 5.17928,-4.05944c2.86044,0 5.17928,1.81747 5.17928,4.05944z" fill="#000000" stroke="none" stroke-width="0"/><g stroke="none"><path d="M246.48268,163.95807c-1.01232,-2.13585 -5.00305,-10.55569 -7.04202,-14.85762c-0.80046,-1.68885 -0.02927,-3.12091 1.65958,-3.92136c3.84142,-1.8207 10.44136,-4.94886 12.80139,-6.06743c1.94535,-0.92203 4.01991,-1.02466 4.94194,0.92069c1.98682,4.1919 5.72548,12.07991 6.78245,14.30996c0.63172,1.33284 0.48392,2.67553 -0.85427,3.29582c-4.11883,1.90919 -13.39956,6.22996 -15.54326,7.38933c-1.97104,1.06599 -2.7458,-1.06938 -2.7458,-1.06938z" fill="#ffffff" stroke-width="0"/><path d="M240.44568,151.22091l-0.47962,-1.01193l19.35327,-9.17282l0.47962,1.01193z" fill="#00f7ff" stroke-width="0"/><path d="M245.54827,161.65979l-0.71944,-1.5179l19.35327,-9.17281l0.71943,1.5179z" fill="#00f7ff" stroke-width="0"/><text transform="translate(243.9895,158.371) rotate(-25.35877) scale(0.20882,0.20882)" font-size="40" xml:space="preserve" fill="#00f7ff" stroke-width="1" font-family="Sans Serif" font-weight="normal" text-anchor="start"><tspan x="0" dy="0">Data</tspan></text></g></g></g></svg>