<svg version="1.1" xmlns="http://www.w3.org/2000/svg" xmlns:xlink="http://www.w3.org/1999/xlink" width="64.92823" height="68.63159" viewBox="0,0,64.92823,68.63159"><g transform="translate(-181.80337,-123.62276)"><g stroke-miterlimit="10"><path d="M190.87364,165.25119c0,-13.15016 10.66031,-23.81047 23.81047,-23.81047c13.15016,0 23.81047,10.66031 23.81047,23.81047c0,13.15016 -10.66031,23.81047 -23.81047,23.81047c-13.15016,0 -23.81047,-10.66031 -23.81047,-23.81047z" fill="none" stroke="#000000" stroke-width="5"/><path d="M213.45354,164.89298c0,-1.38071 1.11929,-2.5 2.5,-2.5c1.38071,0 2.5,1.11929 2.5,2.5c0,1.38071 -1.11929,2.5 -2.5,2.5c-1.38071,0 -2.5,-1.11929 -2.5,-2.5z" fill="#000000" stroke="none" stroke-width="0.5"/><path d="M223.06158,164.67905c0,-1.38071 1.11929,-2.5 2.5,-2.5c1.38071,0 2.5,1.11929 2.5,2.5c0,1.38071 -1.11929,2.5 -2.5,2.5c-1.38071,0 -2.5,-1.11929 -2.5,-2.5z" fill="#000000" stroke="none" stroke-width="0.5"/><path d="M234.70492,171.48067c1.76777,1.76777 0,3.53553 0,3.53553c0,0 -5.60794,4.68094 -11.74049,5.2149c-3.94939,0.34387 -8.19828,-2.42489 -11.03423,-4.63366c0,0 -1.95217,-1.56174 -0.39043,-3.51391c1.56174,-1.95217 3.51391,-0.39043 3.51391,-0.39043c2.3729,1.9713 4.80938,4.63702 7.37221,4.4591c2.79787,-0.19423 5.74632,-3.37481 8.92702,-4.4818l-0.18352,-0.18974c0,0 1.76777,-1.76777 3.53553,0z" fill="#000000" stroke="none" stroke-width="0.5"/><path d="M195.98573,181.75581c3.67219,0 6.64908,2.35018 6.64908,5.24927c0,2.89909 -2.97689,5.24927 -6.64908,5.24927c-3.67219,0 -6.64908,-2.35018 -6.64908,-5.24927c0,-2.89909 2.97689,-5.24927 6.64908,-5.24927z" fill="#000000" stroke="none" stroke-width="0"/><path d="M237.07004,185.81525c0,2.47389 -1.91148,4.47938 -4.26941,4.47938c-2.35793,0 -4.26941,-2.00549 -4.26941,-4.47938c0,-2.47389 1.91148,-4.47938 4.26941,-4.47938c2.35793,0 4.26941,2.00549 4.26941,4.47938z" fill="#000000" stroke="none" stroke-width="0"/><path d="M246.7316,169.89438c0,3.28564 -1.97415,5.94918 -4.40939,5.94918c-2.43524,0 -4.40939,-2.66354 -4.40939,-5.94918c0,-3.28564 1.97415,-5.94918 4.40939,-5.94918c2.43524,0 4.40939,2.66354 4.40939,5.94918z" fill="#000000" stroke="none" stroke-width="NaN"/><path d="M186.49273,162.07988c2.58986,0 4.68935,2.72621 4.68935,6.08916c0,3.36295 -2.09949,6.08916 -4.68935,6.08916c-2.58986,0 -4.68935,-2.72621 -4.68935,-6.08916c0,-3.36295 2.09949,-6.08916 4.68935,-6.08916z" fill="#000000" stroke="none" stroke-width="0"/><path d="M232.15908,142.51975c-1.24982,0.02126 -1.27108,-1.22856 -1.27108,-1.22856l-0.02133,-1.51577c0.48962,-3.12914 2.14019,-4.39436 4.35202,-6.51792c0.88287,-0.84763 2.96401,-2.6288 2.97634,-4.03792c0.00918,-1.04896 -0.99992,-2.33907 -2.27065,-2.79131c-1.055,-0.37546 -2.33342,-0.037 -2.9664,0.25241c-1.22125,0.55837 -0.47508,3.3609 -0.36187,3.94128c0,0 0.22066,1.23037 -1.0097,1.45103c-1.23037,0.22066 -1.45103,-1.0097 -1.45103,-1.0097c-0.36342,-2.17588 -0.81948,-5.2433 1.71181,-6.62228c1.46023,-0.7955 3.13424,-1.17349 4.84742,-0.37856c2.01991,0.93726 3.97707,3.27972 3.99972,5.21685c0.0555,4.74639 -6.69293,6.33519 -7.33333,10.66457l0.02665,1.3048c0,0 0.02126,1.24982 -1.22856,1.27108z" fill="#000000" stroke="none" stroke-width="0.5"/><path d="M230.65467,144.39244c0,-0.69036 0.55964,-1.25 1.25,-1.25c0.69036,0 1.25,0.55964 1.25,1.25c0,0.69036 -0.55964,1.25 -1.25,1.25c-0.69036,0 -1.25,-0.55964 -1.25,-1.25z" fill="#000000" stroke="none" stroke-width="0.5"/></g></g></svg>