<svg version="1.1" xmlns="http://www.w3.org/2000/svg" xmlns:xlink="http://www.w3.org/1999/xlink" width="21.7795" height="21.7455" viewBox="0,0,21.7795,21.7455"><g transform="translate(-229.11025,-169.12725)"><g stroke="none" stroke-miterlimit="10"><g><path d="M229.11984,188.32907c0.0517,-2.36304 0.25552,-11.67852 0.35966,-16.43805c0.04088,-1.8685 1.37187,-2.80337 3.24036,-2.76248c4.25004,0.09299 11.55203,0.25275 14.1631,0.30989c2.15228,0.04709 4.05302,0.88465 4.00593,3.03693c-0.10148,4.6378 -0.29242,13.36487 -0.3464,15.83214c-0.03227,1.47462 -0.76588,2.60884 -2.24016,2.56396c-4.5377,-0.13815 -14.7707,-0.43253 -17.20663,-0.35628c-2.23974,0.07011 -1.97586,-2.18609 -1.97586,-2.18609z" fill="#ffffff" stroke-width="0"/><path d="M229.42817,174.23703l0.0245,-1.11957l21.41192,0.46848l-0.0245,1.11957z" fill="#00f7ff" stroke-width="0"/><path d="M229.31397,185.85571l0.03674,-1.67936l21.41191,0.46849l-0.03675,1.67936z" fill="#00f7ff" stroke-width="0"/><text transform="translate(229.39358,182.21709) rotate(1.25405) scale(0.20882,0.20882)" font-size="40" xml:space="preserve" fill="#00f7ff" stroke-width="1" font-family="Sans Serif" font-weight="normal" text-anchor="start"><tspan x="0" dy="0">Data</tspan></text></g></g></g></svg>