<svg version="1.1" xmlns="http://www.w3.org/2000/svg" xmlns:xlink="http://www.w3.org/1999/xlink" width="21.60451" height="38.36941" viewBox="0,0,21.60451,38.36941"><g transform="translate(-229.19775,-152.4087)"><g stroke="none" stroke-miterlimit="10"><g><path d="M229.20497,188.46428c0.02351,-2.36349 0.11617,-11.68074 0.16352,-16.44117c0.01859,-1.86885 1.33833,-2.81954 3.20717,-2.80095c1.45903,0.01451 9.22528,-0.37078 13.64203,-0.22258c0.89506,0.03003 -8.1297,-7.58349 -8.55156,-8.44595c-1.93462,-3.9551 -5.80932,-8.15891 -4.40119,-8.1449c2.15269,0.02141 17.5398,17.79056 17.51839,19.94324c-0.04614,4.63868 -0.13295,13.36741 -0.15749,15.83514c-0.01467,1.4749 -0.7347,2.6178 -2.20941,2.59051c-4.53902,-0.084 -14.77481,-0.25628 -17.20966,-0.15098c-2.23874,0.09682 -2.0018,-2.16236 -2.0018,-2.16236z" fill="#ffffff" stroke-width="0"/><path d="M229.34515,174.36957l0.01114,-1.11978l21.41598,0.21299l-0.01114,1.11978z" fill="#00f7ff" stroke-width="0"/><path d="M229.36957,185.98878l0.0167,-1.67968l21.41598,0.213l-0.01671,1.67968z" fill="#00f7ff" stroke-width="0"/><text transform="translate(229.40578,182.34946) rotate(0.57046) scale(0.20882,0.20882)" font-size="40" xml:space="preserve" fill="#00f7ff" stroke-width="1" font-family="Sans Serif" font-weight="normal" text-anchor="start"><tspan x="0" dy="0">Data</tspan></text></g></g></g></svg>